<?xml version="1.0" standalone="no"?>
<!DOCTYPE svg PUBLIC "-//W3C//DTD SVG 20010904//EN"
 "http://www.w3.org/TR/2001/REC-SVG-20010904/DTD/svg10.dtd">
<svg version="1.0" xmlns="http://www.w3.org/2000/svg"
 width="2557.000000pt" height="2555.000000pt" viewBox="0 0 2557.000000 2555.000000"
 preserveAspectRatio="xMidYMid meet">

<g transform="translate(0.000000,2555.000000) scale(0.100000,-0.100000)"
fill="#000000" stroke="none">
<path d="M12930 20901 c-169 -30 -437 -147 -674 -294 -321 -199 -542 -359
-912 -659 -456 -368 -1126 -1016 -1643 -1587 -154 -171 -281 -315 -605 -691
-136 -158 -555 -691 -671 -854 -16 -23 -62 -87 -101 -142 -165 -230 -307 -440
-380 -564 -213 -358 -251 -430 -274 -521 -16 -62 5 -114 53 -134 85 -35 147
21 311 287 48 77 115 177 277 416 68 100 135 200 149 220 125 187 500 681 768
1011 78 97 175 216 215 266 216 267 736 835 1077 1175 401 401 877 828 1220
1096 541 423 977 669 1263 714 139 22 214 -6 242 -90 27 -80 19 -205 -21 -330
-8 -25 -21 -65 -28 -90 -19 -60 -44 -128 -61 -167 -8 -17 -15 -35 -15 -40 0
-4 -9 -26 -20 -48 -10 -22 -44 -94 -75 -160 -31 -66 -69 -145 -85 -175 -16
-30 -45 -86 -64 -125 -20 -38 -40 -77 -46 -85 -5 -8 -53 -91 -106 -185 -53
-93 -114 -195 -134 -225 -20 -31 -39 -62 -43 -70 -4 -8 -15 -27 -25 -41 -9
-14 -24 -36 -32 -49 -133 -209 -307 -461 -514 -745 -252 -347 -466 -618 -846
-1070 -65 -77 -152 -180 -193 -230 -70 -85 -233 -269 -698 -790 -108 -121
-295 -317 -417 -436 -131 -128 -224 -227 -227 -242 -13 -51 41 -104 94 -92 55
12 915 808 1186 1097 105 111 235 250 290 308 329 346 943 1116 1293 1620 70
101 219 324 267 400 56 88 80 126 127 200 19 30 44 70 54 89 11 18 24 41 29
50 6 9 30 51 55 95 25 43 55 95 66 115 48 80 252 491 279 561 16 41 32 80 36
85 10 14 59 140 59 151 0 5 7 22 15 38 9 16 20 46 25 65 5 20 15 56 23 81 39
121 52 206 51 335 0 119 -3 136 -29 199 -40 98 -118 179 -215 224 -71 34 -81
35 -200 38 -69 1 -145 -1 -170 -5z"/>
<path d="M13860 18059 c-168 -16 -298 -78 -411 -196 -72 -75 -124 -157 -159
-248 -12 -33 -28 -76 -36 -95 -7 -19 -23 -95 -35 -169 -55 -338 28 -731 252
-1186 43 -88 90 -178 104 -200 13 -22 32 -53 41 -70 9 -16 52 -82 94 -145 402
-600 1046 -1294 1735 -1870 163 -136 214 -179 440 -375 159 -137 170 -145 222
-145 54 0 79 31 69 84 -6 29 -49 74 -289 294 -155 143 -316 295 -357 338 -41
44 -176 183 -300 310 -482 493 -852 911 -1115 1259 -93 122 -259 368 -301 444
-11 19 -32 57 -47 85 -145 262 -214 442 -274 716 -28 130 -25 427 5 529 50
170 128 278 242 338 51 26 63 28 170 28 145 -1 238 -27 440 -124 87 -41 102
-50 275 -163 213 -140 432 -308 779 -597 226 -189 265 -222 401 -341 66 -58
151 -131 188 -164 235 -203 637 -584 1062 -1005 504 -499 679 -664 940 -886
247 -210 335 -260 411 -235 21 7 40 23 49 40 42 81 -1 146 -239 359 -72 64
-390 373 -706 686 -546 542 -961 940 -1170 1126 -346 307 -431 382 -714 619
-250 210 -535 436 -676 535 -116 81 -214 147 -229 153 -9 3 -35 19 -59 35 -42
29 -274 147 -287 147 -4 0 -21 6 -38 14 -68 31 -185 64 -247 71 -36 3 -81 8
-100 10 -19 2 -78 -1 -130 -6z"/>
<path d="M7960 15305 c-8 -2 -82 -11 -165 -20 -238 -26 -445 -70 -790 -166
-253 -70 -749 -284 -1125 -486 -388 -208 -908 -566 -1260 -868 -542 -464 -950
-913 -1426 -1565 -106 -145 -274 -387 -274 -395 0 -1 -21 -33 -46 -71 -81
-121 -140 -257 -130 -299 3 -13 18 -37 32 -54 51 -61 127 -35 212 72 45 57
232 330 241 351 4 11 218 311 251 354 12 15 57 73 100 129 546 712 1218 1348
1900 1797 239 158 198 132 515 318 17 10 138 71 270 137 323 160 594 266 905
354 182 52 370 92 525 113 66 9 149 20 185 25 36 4 189 8 341 9 243 0 296 -3
450 -25 237 -35 405 -74 554 -130 39 -14 84 -30 100 -34 17 -5 46 -15 65 -24
19 -9 64 -27 100 -41 85 -33 260 -124 363 -188 386 -241 689 -578 802 -888 77
-215 70 -168 70 -455 0 -218 -3 -267 -17 -305 -9 -25 -19 -62 -22 -82 -4 -20
-13 -50 -21 -65 -8 -15 -15 -35 -15 -43 0 -27 -90 -203 -138 -269 -43 -61 -82
-132 -82 -151 0 -5 12 -22 26 -39 56 -67 110 -32 236 152 139 203 226 383 282
577 19 69 46 243 40 267 -2 10 -8 70 -14 133 -17 195 -61 355 -146 524 -30 60
-70 131 -89 158 -19 26 -35 51 -35 54 0 16 -187 238 -262 310 -152 148 -353
300 -543 410 -74 43 -263 135 -355 173 -30 13 -74 32 -98 42 -23 10 -49 19
-58 19 -8 0 -28 7 -45 15 -16 9 -48 20 -72 24 -42 9 -126 29 -227 56 -231 61
-459 86 -800 90 -162 2 -302 2 -310 0z"/>
<path d="M11985 14970 c-55 -4 -127 -15 -160 -24 -125 -36 -230 -70 -240 -77
-5 -3 -21 -10 -35 -14 -82 -24 -347 -170 -455 -251 -84 -62 -99 -78 -120 -127
-14 -33 -14 -40 0 -67 48 -92 107 -81 380 70 99 54 212 109 320 153 108 45
306 87 408 87 66 0 200 -25 252 -47 60 -25 143 -91 176 -140 102 -148 97 -372
-16 -638 -24 -57 -76 -160 -101 -200 -13 -22 -27 -47 -31 -55 -20 -45 -139
-210 -259 -360 -134 -168 -447 -468 -663 -635 -222 -173 -398 -305 -406 -305
-3 0 -30 -18 -60 -40 -30 -22 -58 -40 -62 -41 -33 -2 -143 -112 -143 -141 0
-18 68 -78 86 -78 20 1 109 48 274 145 56 33 126 74 156 90 29 17 59 36 66 43
7 7 16 12 21 12 5 0 48 26 95 59 314 211 460 329 692 558 107 105 214 216 238
245 193 240 299 420 400 678 12 31 22 62 22 70 0 8 10 44 21 80 18 55 22 91
23 240 1 160 -1 181 -23 245 -32 92 -56 138 -108 207 -108 142 -299 237 -518
258 -55 5 -107 9 -115 8 -8 0 -60 -4 -115 -8z"/>
<path d="M19470 14269 c-14 -6 -52 -16 -85 -24 -74 -16 -283 -74 -420 -115
-137 -42 -161 -50 -290 -95 -71 -25 -148 -52 -170 -60 -22 -7 -92 -32 -155
-55 -63 -23 -134 -48 -156 -55 -23 -7 -50 -18 -60 -23 -11 -5 -46 -20 -79 -32
-33 -12 -81 -30 -107 -41 -27 -10 -72 -29 -100 -40 -29 -12 -71 -30 -94 -40
-23 -11 -46 -19 -52 -19 -5 0 -41 -14 -78 -31 -38 -16 -98 -41 -134 -55 -36
-13 -83 -33 -105 -43 -22 -10 -105 -47 -185 -81 -80 -35 -156 -69 -170 -76
-40 -20 -201 -94 -207 -94 -7 0 -363 -179 -438 -219 -33 -18 -89 -50 -124 -70
-35 -20 -84 -48 -110 -62 -202 -115 -501 -340 -665 -502 -138 -137 -289 -326
-355 -447 -104 -192 -147 -302 -197 -505 -26 -104 -32 -444 -9 -536 9 -37 20
-89 25 -116 23 -128 102 -311 191 -446 22 -32 39 -60 39 -62 0 -11 109 -166
139 -197 28 -30 42 -38 71 -38 86 0 96 81 23 192 -34 50 -68 113 -89 163 -37
87 -64 160 -64 175 -1 8 -9 33 -20 55 -11 22 -19 50 -20 61 0 12 -7 41 -15 65
-20 55 -55 300 -55 380 0 81 27 256 53 344 44 151 80 237 152 360 147 252 368
475 692 699 45 31 84 56 87 56 4 0 28 15 54 33 26 17 59 38 72 46 14 8 63 37
110 64 114 67 566 292 712 355 64 28 125 55 135 60 10 6 41 19 68 30 58 24
241 99 270 112 73 32 128 54 185 76 36 14 85 34 110 44 25 10 77 31 115 45 39
14 79 30 90 34 19 8 74 28 193 72 31 12 77 30 102 39 124 50 229 90 260 99 19
5 67 21 105 36 68 25 114 40 213 69 26 8 58 18 72 24 35 14 230 73 375 114
155 43 213 62 268 87 99 43 128 113 72 171 -28 29 -31 30 -124 29 -53 0 -107
-5 -121 -10z"/>
<path d="M8356 14060 c-56 -17 -96 -73 -96 -134 0 -46 54 -106 97 -106 16 0
44 -8 64 -18 43 -22 198 -145 299 -238 41 -38 116 -103 165 -144 50 -41 117
-100 151 -130 80 -73 211 -183 287 -244 85 -67 438 -379 461 -408 11 -12 58
-65 105 -117 197 -214 277 -320 321 -421 21 -47 24 -71 25 -170 0 -99 -4 -123
-24 -175 -73 -181 -124 -259 -439 -672 -62 -81 -153 -202 -202 -268 -49 -66
-111 -144 -136 -173 -40 -44 -47 -59 -48 -96 -1 -57 16 -76 68 -76 41 0 44 3
316 283 325 332 415 442 589 716 37 59 88 179 120 285 42 139 20 360 -49 497
-113 221 -490 628 -880 947 -46 37 -151 126 -235 197 -84 72 -202 171 -261
220 -60 50 -138 117 -174 150 -36 33 -105 92 -155 131 -198 154 -279 191 -369
164z"/>
<path d="M20053 14023 c-61 -30 -65 -113 -11 -198 31 -48 144 -183 408 -486
107 -123 220 -253 250 -290 50 -61 151 -178 461 -535 236 -271 288 -332 390
-457 57 -70 144 -176 192 -235 150 -183 325 -410 362 -471 6 -9 23 -33 39 -54
60 -80 284 -418 356 -537 13 -22 39 -66 93 -155 7 -11 19 -31 28 -45 9 -14 27
-45 41 -70 27 -49 163 -286 178 -310 5 -8 23 -42 41 -75 17 -33 35 -64 39 -70
4 -5 31 -55 60 -110 30 -55 72 -136 96 -180 23 -44 54 -105 69 -135 14 -30 31
-64 37 -75 37 -66 152 -309 193 -405 15 -36 36 -83 46 -105 65 -143 210 -578
209 -631 0 -11 7 -40 15 -65 8 -24 19 -84 24 -134 6 -49 15 -119 21 -155 14
-93 12 -254 -4 -351 -8 -46 -17 -109 -21 -139 -4 -30 -13 -70 -21 -89 -8 -18
-14 -44 -14 -58 0 -49 -93 -243 -173 -363 -28 -41 -96 -120 -151 -175 -265
-263 -612 -409 -1086 -456 -129 -13 -476 -4 -597 16 -49 8 -108 15 -133 15
-25 0 -76 7 -115 16 -38 8 -101 19 -140 25 -213 28 -592 138 -910 263 -50 20
-94 36 -99 36 -5 0 -27 8 -50 19 -23 10 -66 29 -96 41 -109 44 -233 104 -379
182 -152 82 -183 108 -163 136 20 30 133 255 158 317 24 57 31 73 76 175 11
25 26 59 33 75 7 17 31 68 53 115 77 159 82 179 82 311 0 84 -4 130 -15 156
-65 156 83 38 184 -146 31 -56 115 -185 155 -235 17 -22 94 -96 172 -165 142
-126 194 -159 364 -233 97 -42 276 -93 360 -103 30 -3 100 -13 155 -22 167
-26 423 -6 598 49 101 31 132 83 86 142 l-20 26 -202 1 c-268 1 -402 14 -617
61 -117 25 -157 38 -289 95 -122 52 -143 67 -295 204 -103 92 -175 178 -222
264 -94 173 -168 264 -266 332 -154 106 -333 161 -433 133 -42 -12 -46 -11
-150 39 -73 35 -120 51 -148 52 -23 0 -62 4 -87 8 l-45 7 55 54 c31 30 106
102 167 160 119 113 136 144 111 197 -11 24 -20 28 -59 31 -42 3 -51 -1 -123
-58 -43 -33 -83 -60 -87 -60 -12 0 -112 -65 -176 -115 -28 -22 -77 -58 -109
-80 -154 -107 -268 -255 -339 -441 -14 -38 -32 -82 -40 -99 -34 -70 -45 -115
-34 -143 26 -68 79 -86 152 -53 72 33 119 89 146 173 30 93 80 189 137 261 51
66 73 71 114 27 15 -16 37 -30 47 -30 67 0 287 -105 405 -193 58 -44 71 -59
92 -112 31 -79 41 -187 27 -290 -11 -78 -54 -209 -72 -221 -5 -3 -9 -12 -9
-21 0 -8 -6 -29 -14 -46 -37 -83 -56 -131 -56 -143 0 -17 -78 -166 -118 -224
-90 -132 -209 -255 -317 -327 -118 -79 -201 -109 -370 -135 -126 -20 -134 -20
-255 -4 -149 21 -249 52 -385 121 -202 102 -401 289 -501 470 -70 127 -77 143
-119 275 -35 107 -47 195 -52 354 -3 95 1 174 12 255 16 112 23 141 68 296 43
150 149 390 244 556 12 20 27 47 35 60 7 13 27 44 44 69 16 25 33 52 36 62 9
23 146 215 246 343 272 349 660 756 947 992 137 112 297 226 455 323 253 156
292 199 256 285 -46 109 -247 29 -642 -252 -411 -294 -925 -812 -1275 -1285
-166 -224 -266 -372 -292 -430 -13 -32 -18 -33 -58 -12 -27 13 -51 14 -202 4
-247 -16 -287 -10 -477 70 -36 15 -100 40 -143 55 -68 23 -83 25 -108 15 -34
-14 -49 -37 -49 -74 0 -44 11 -55 112 -114 55 -31 112 -65 126 -74 15 -10 34
-21 42 -24 8 -4 33 -14 55 -24 84 -36 194 -60 275 -60 77 0 200 27 273 61 53
24 54 -1 2 -108 -25 -54 -53 -111 -60 -128 -7 -16 -21 -48 -30 -70 -10 -22
-24 -60 -31 -85 -7 -25 -23 -76 -34 -115 -31 -102 -60 -238 -72 -335 -15 -126
-5 -458 17 -545 23 -91 66 -236 76 -255 4 -8 20 -44 35 -80 15 -36 36 -77 46
-92 10 -14 18 -29 18 -32 0 -18 130 -193 195 -264 294 -316 703 -490 1101
-468 245 13 489 115 669 280 28 25 56 46 62 46 7 0 45 -22 85 -48 101 -67 161
-104 248 -154 41 -24 83 -47 92 -53 352 -210 704 -360 1093 -465 44 -12 109
-30 145 -40 77 -21 232 -52 385 -76 139 -21 587 -31 730 -15 161 17 305 39
375 56 158 38 289 79 355 110 132 62 223 107 240 117 157 101 200 135 319 248
99 94 190 210 273 345 13 22 68 133 88 180 7 17 21 48 30 70 46 107 81 256 96
415 14 143 4 445 -17 560 -31 167 -55 276 -75 335 -10 33 -19 67 -19 76 0 9
-8 38 -19 65 -10 27 -28 81 -41 119 -12 39 -26 79 -30 90 -5 11 -25 61 -44
110 -111 290 -356 788 -608 1235 -32 58 -63 112 -68 120 -5 8 -18 31 -28 50
-24 46 -55 100 -85 147 -13 21 -27 45 -31 53 -4 8 -17 31 -29 51 -12 20 -39
65 -60 100 -21 35 -58 96 -83 134 -24 39 -47 76 -51 83 -3 8 -67 105 -141 215
-192 288 -370 523 -695 920 -32 39 -88 103 -125 142 -37 39 -123 136 -192 215
-68 80 -152 177 -186 215 -34 39 -140 160 -235 270 -95 110 -214 247 -265 305
-582 663 -617 700 -702 733 -50 20 -48 20 -89 0z"/>
<path d="M7310 12614 c-39 -26 -50 -45 -50 -84 0 -63 65 -132 255 -271 428
-313 855 -735 1072 -1059 54 -80 141 -246 168 -320 53 -148 65 -211 65 -365 0
-168 -13 -233 -78 -384 -108 -252 -403 -520 -677 -614 -185 -64 -229 -71 -440
-71 -180 0 -206 2 -263 22 -34 12 -68 22 -76 22 -13 0 -71 22 -141 54 -154 70
-219 113 -325 212 -82 78 -120 95 -161 74 -32 -17 -39 -29 -39 -71 0 -32 10
-47 70 -112 139 -148 294 -271 438 -346 119 -63 371 -121 519 -121 91 0 310
32 388 56 405 128 720 376 909 716 87 156 146 385 146 563 0 160 -49 373 -123
540 -57 126 -84 174 -183 322 -202 300 -599 694 -1025 1014 -196 148 -236 174
-314 210 -74 33 -100 36 -135 13z"/>
<path d="M13240 12564 c-233 -40 -411 -105 -520 -192 -191 -151 -287 -309
-330 -542 -25 -133 -25 -227 0 -365 90 -507 451 -954 1093 -1354 54 -33 102
-61 106 -61 4 0 12 -5 19 -12 31 -31 395 -215 567 -288 55 -23 119 -50 143
-61 23 -10 51 -19 60 -19 10 0 23 -5 29 -11 5 -5 32 -16 59 -24 84 -24 148
-46 176 -61 14 -8 34 -14 43 -14 9 0 31 -6 48 -14 34 -16 135 -49 257 -85 41
-13 86 -27 100 -33 14 -5 58 -18 97 -29 107 -27 153 -6 153 70 0 25 -8 37 -42
61 -22 16 -48 30 -57 30 -23 0 -291 91 -396 135 -16 7 -57 23 -90 35 -62 23
-135 55 -170 73 -11 6 -128 65 -260 132 -257 131 -331 170 -349 184 -6 4 -36
22 -66 38 -30 17 -71 40 -90 51 -19 12 -48 29 -65 38 -51 29 -195 125 -305
203 -216 154 -459 388 -580 559 -159 225 -233 429 -234 647 -2 202 45 325 169
451 123 124 248 177 461 195 297 25 556 -35 919 -211 99 -48 197 -93 217 -99
21 -7 40 -17 43 -22 4 -5 30 -9 59 -9 72 0 106 32 106 98 0 41 -4 50 -48 92
-111 107 -310 210 -632 325 -50 18 -181 51 -280 70 -80 16 -355 29 -410 19z"/>
<path d="M18950 12508 c-127 -38 -325 -102 -355 -114 -16 -6 -56 -21 -87 -33
-170 -62 -168 -62 -278 -109 -25 -11 -63 -28 -85 -37 -206 -89 -508 -247 -733
-382 -110 -66 -459 -297 -537 -356 -333 -250 -427 -326 -640 -518 -319 -289
-533 -544 -664 -794 -95 -180 -152 -395 -151 -572 1 -72 29 -245 50 -303 25
-70 96 -207 139 -270 97 -140 290 -317 486 -446 156 -102 411 -224 565 -270
74 -22 236 -78 288 -100 18 -8 52 -14 77 -14 35 0 48 5 64 26 27 34 27 64 0
97 -18 24 -97 67 -121 67 -6 0 -26 7 -46 16 -81 36 -148 67 -167 77 -62 32
-131 71 -140 77 -5 4 -39 23 -75 42 -36 20 -82 45 -102 57 -21 11 -55 31 -75
42 -195 110 -457 329 -542 453 -42 60 -88 149 -118 225 -25 61 -27 77 -27 226
-1 189 12 240 103 425 178 357 585 775 1193 1223 148 109 342 241 450 305 46
27 112 67 148 89 36 22 94 56 130 75 36 19 82 45 103 57 21 11 97 51 170 87
72 36 143 71 157 79 22 11 235 103 360 155 57 24 209 77 375 131 241 79 322
116 345 158 20 39 12 95 -18 124 -26 25 -35 27 -103 26 -42 -1 -102 -10 -139
-21z"/>
<path d="M6433 11114 c-24 -24 -25 -31 -20 -84 4 -32 15 -85 25 -117 41 -125
49 -207 31 -307 -23 -130 -77 -235 -195 -381 -143 -178 -625 -606 -899 -800
-23 -16 -94 -69 -156 -116 -107 -80 -229 -161 -309 -206 -19 -11 -64 -36 -100
-57 -36 -20 -72 -40 -80 -45 -34 -18 -68 -36 -113 -59 -92 -48 -120 -110 -72
-157 33 -34 77 -32 145 4 30 17 82 44 115 61 55 29 131 70 261 141 61 32 155
87 192 111 15 10 43 26 62 36 71 38 116 65 147 88 17 13 35 24 38 24 15 0 270
184 395 284 237 190 578 528 647 641 57 92 105 185 110 208 9 44 31 30 102
-63 137 -179 256 -271 334 -256 54 10 97 65 97 121 0 44 -3 48 -98 143 -91 90
-184 207 -389 485 -46 62 -83 117 -83 122 0 6 -7 23 -15 38 -8 16 -20 47 -26
69 -13 51 -58 98 -94 98 -15 0 -37 -11 -52 -26z"/>
<path d="M6926 9103 c-11 -3 -41 -20 -67 -39 -27 -19 -51 -34 -54 -34 -3 0
-74 -55 -157 -122 -222 -181 -335 -266 -548 -418 -51 -36 -110 -79 -133 -96
-45 -33 -325 -221 -442 -296 -88 -56 -253 -155 -325 -195 -30 -16 -73 -40 -95
-53 -93 -53 -349 -181 -460 -229 -66 -29 -134 -59 -152 -67 -17 -8 -37 -14
-45 -14 -8 0 -18 -4 -24 -8 -17 -16 -227 -84 -374 -122 -47 -12 -107 -28 -135
-35 -27 -8 -72 -17 -100 -20 -27 -4 -77 -13 -110 -20 -33 -8 -155 -21 -271
-31 -198 -16 -221 -16 -400 0 -104 9 -211 23 -239 31 -27 7 -68 16 -90 20
-102 17 -328 107 -465 186 -118 68 -312 260 -378 376 -41 72 -82 160 -82 175
0 9 -6 31 -14 49 -20 51 -48 295 -41 370 8 91 -14 133 -72 137 -37 3 -44 -1
-66 -30 -20 -27 -26 -49 -31 -118 -9 -124 21 -389 56 -490 9 -25 26 -76 39
-115 81 -250 279 -478 540 -625 148 -83 379 -166 529 -189 36 -6 80 -15 99
-20 73 -22 403 -33 608 -21 109 6 216 15 238 20 22 5 72 14 110 20 199 30 556
132 770 220 17 7 53 21 80 32 47 19 83 34 165 71 77 34 378 186 430 217 30 18
64 36 75 41 11 5 52 29 90 54 39 25 77 48 85 52 109 50 738 479 1010 690 371
287 483 383 544 464 53 70 59 108 23 152 -23 29 -78 42 -121 30z"/>
</g>
</svg>
