<?xml version="1.0" standalone="no"?>
<!DOCTYPE svg PUBLIC "-//W3C//DTD SVG 20010904//EN"
 "http://www.w3.org/TR/2001/REC-SVG-20010904/DTD/svg10.dtd">
<svg version="1.0" xmlns="http://www.w3.org/2000/svg"
 width="100%" height="auto" viewBox="0 0 3093.000000 686.000000"
 preserveAspectRatio="xMidYMid meet" >

<g transform="translate(0.000000,686.000000) scale(0.100000,-0.100000)"
fill="currentColor" stroke="none">
<path d="M16384 6760 c-283 -100 -686 -411 -1165 -897 -442 -449 -825 -923
-1059 -1313 -87 -146 -107 -197 -90 -230 14 -25 54 -26 79 -1 10 10 72 99 137
197 206 313 504 704 725 949 632 704 1252 1195 1509 1195 66 0 85 -23 84 -99
-4 -213 -315 -762 -737 -1300 -161 -206 -328 -403 -612 -721 -22 -25 -102
-109 -178 -186 -145 -148 -161 -176 -105 -182 22 -3 42 10 101 65 40 37 122
113 182 167 487 440 1049 1156 1313 1671 109 214 171 391 172 491 0 88 -49
170 -119 200 -47 20 -174 17 -237 -6z"/>
<path d="M16845 5481 c-121 -22 -206 -115 -245 -266 -44 -174 -7 -373 116
-618 133 -264 486 -673 839 -971 61 -52 157 -134 215 -184 76 -67 112 -91 133
-92 23 0 27 4 27 28 0 21 -16 42 -77 97 -277 250 -647 642 -835 885 -276 357
-381 692 -280 895 60 122 173 139 359 54 128 -60 376 -249 728 -558 175 -153
214 -191 485 -457 278 -273 318 -310 450 -423 106 -90 150 -116 186 -107 20 5
24 13 24 41 0 37 -21 62 -145 174 -33 30 -197 190 -365 355 -262 258 -388 378
-570 541 -133 118 -410 343 -520 422 -213 151 -382 211 -525 184z"/>
<path d="M29189 4373 c-1 -5 -1 -11 -1 -14 1 -3 -4 -6 -11 -7 -25 -1 -73 -11
-104 -21 -17 -5 -34 -6 -38 -3 -10 10 -55 9 -48 0 2 -5 -7 -6 -21 -2 -15 3
-26 2 -26 -4 0 -9 -80 -38 -135 -48 -15 -3 -38 -10 -49 -16 -12 -7 -30 -13
-41 -15 -10 -2 -22 -8 -26 -15 -4 -6 -11 -8 -17 -4 -5 3 -13 -1 -16 -10 -3 -8
-10 -12 -16 -9 -5 3 -16 3 -22 -2 -7 -4 -22 -9 -33 -10 -11 -2 -23 -10 -28
-18 -4 -8 -18 -15 -30 -15 -18 0 -19 -2 -7 -10 13 -9 13 -10 0 -11 -8 -1 -19
-1 -23 0 -4 1 -10 -5 -13 -13 -3 -8 -12 -12 -20 -9 -8 3 -14 1 -14 -5 0 -5
-13 -12 -30 -15 -16 -4 -39 -16 -50 -27 -11 -11 -23 -20 -26 -20 -13 0 -153
-113 -209 -168 -223 -221 -304 -327 -407 -532 -13 -25 -27 -48 -33 -52 -5 -4
-6 -8 -2 -8 5 0 0 -16 -12 -36 -12 -19 -21 -42 -21 -50 0 -8 -4 -14 -9 -14 -9
0 -27 -57 -23 -72 1 -5 -2 -8 -8 -8 -5 0 -10 -9 -10 -20 0 -11 -4 -20 -9 -20
-8 0 -25 -64 -26 -100 0 -8 -3 -19 -6 -25 -18 -29 -33 -135 -19 -135 6 0 10
-5 10 -12 0 -6 -3 -8 -7 -5 -8 9 -34 -43 -27 -54 3 -5 0 -9 -6 -9 -7 0 -5 -7
4 -16 20 -19 20 -23 0 -45 -11 -13 -13 -22 -6 -35 7 -12 6 -22 -3 -31 -10 -9
-11 -22 -5 -44 6 -18 6 -39 1 -47 -5 -10 -4 -33 5 -60 9 -33 10 -51 3 -65 -11
-19 4 -98 22 -123 5 -6 6 -13 3 -16 -3 -3 0 -26 7 -49 7 -24 13 -46 13 -49 1
-3 5 -11 9 -18 5 -7 5 -21 2 -32 -4 -11 -2 -20 3 -20 10 0 23 -37 27 -74 1
-10 9 -24 18 -31 10 -7 17 -22 17 -34 0 -11 5 -21 11 -21 6 0 9 -6 6 -14 -6
-16 26 -69 36 -59 4 3 7 -4 7 -16 0 -23 26 -56 44 -56 6 0 11 -9 11 -20 1 -11
6 -19 13 -17 7 1 13 -2 13 -8 1 -5 2 -14 3 -19 1 -11 118 -121 129 -121 5 0 5
-5 1 -12 -4 -6 -3 -8 3 -5 5 3 39 -21 74 -54 35 -33 80 -67 99 -76 77 -34 120
-56 120 -63 0 -4 14 -10 32 -14 17 -3 40 -14 51 -24 10 -9 20 -16 21 -14 0 2
14 -1 29 -7 16 -6 34 -11 40 -11 7 0 24 -6 39 -14 20 -11 28 -11 32 -3 3 8 9
6 16 -5 6 -10 22 -18 35 -18 14 0 25 -4 25 -8 0 -12 84 -30 126 -28 19 1 34
-3 34 -8 0 -5 3 -6 6 -3 4 3 16 1 28 -5 11 -7 30 -13 41 -15 37 -6 130 -15
148 -15 9 1 17 -3 17 -8 0 -4 33 -8 73 -9 39 0 95 -4 122 -9 93 -16 457 -6
610 16 77 11 163 23 190 27 28 3 95 13 150 21 55 9 127 19 160 24 77 11 221
38 260 50 17 4 43 11 59 15 62 13 13 14 -110 0 -71 -8 -205 -17 -299 -20 -93
-4 -201 -8 -240 -10 -71 -3 -143 4 -355 30 -25 3 -74 8 -110 10 -36 2 -94 8
-130 14 -36 6 -83 13 -105 15 -67 6 -129 18 -142 28 -6 5 -20 8 -31 6 -10 -2
-26 3 -34 10 -8 7 -35 15 -59 18 -24 4 -52 10 -61 15 -10 6 -18 8 -18 5 0 -3
-24 6 -52 19 -29 14 -62 25 -73 25 -11 0 -35 9 -52 20 -18 11 -33 17 -33 14 0
-3 -13 4 -28 15 -16 11 -40 23 -55 26 -14 4 -33 18 -42 31 -8 13 -19 23 -23
23 -21 -4 -37 7 -99 66 -37 35 -74 65 -80 65 -7 0 -13 8 -13 18 0 9 -14 26
-30 37 -16 11 -30 25 -30 30 0 10 -28 46 -70 92 -11 12 -25 35 -31 52 -6 17
-15 31 -20 31 -4 0 -6 7 -3 15 4 10 0 15 -16 15 -17 0 -20 4 -15 19 3 11 2 28
-3 38 -6 10 -15 31 -21 46 -6 15 -16 25 -21 22 -7 -4 -9 2 -5 18 4 14 1 36 -6
49 -7 12 -13 26 -14 31 0 4 -4 7 -9 6 -5 0 -14 10 -21 23 -9 18 -9 26 2 39 17
20 17 28 -4 52 -10 11 -13 17 -6 14 8 -5 10 4 7 30 -3 21 -6 47 -7 58 -1 11
-6 25 -10 32 -4 6 -3 14 1 17 5 3 7 20 6 38 -10 101 -11 149 -3 154 5 3 7 9 4
14 -3 5 0 21 5 36 6 15 13 52 16 83 3 31 8 63 11 71 3 8 7 28 9 44 2 16 9 35
15 43 6 7 9 13 5 13 -3 0 3 17 14 37 11 21 20 43 20 50 0 7 8 27 18 45 17 30
46 103 47 120 0 3 3 10 8 14 4 4 19 32 32 61 14 29 30 53 35 53 6 0 10 9 10
20 0 11 5 20 10 20 6 0 10 7 10 15 0 8 5 15 10 15 6 0 10 6 10 13 0 8 11 24
24 36 14 13 32 39 41 57 9 19 20 34 24 34 4 0 37 35 72 77 35 42 83 95 107
119 23 23 42 47 42 53 0 6 6 11 13 11 14 0 77 57 77 70 0 5 9 6 20 3 14 -4 20
-1 18 8 -2 8 10 18 29 23 17 5 34 18 36 28 3 10 10 18 17 18 6 0 8 -4 5 -10
-3 -6 1 -7 9 -4 9 3 16 10 16 15 0 9 103 59 121 59 6 0 38 11 72 24 53 20 140
49 157 52 146 26 277 21 360 -13 43 -17 130 -101 130 -124 0 -10 5 -19 10 -21
17 -5 42 -115 32 -136 -5 -9 -7 -22 -5 -28 9 -26 -59 -147 -109 -195 -28 -27
-55 -49 -60 -49 -4 0 -8 -5 -8 -10 0 -28 332 12 354 42 14 18 46 30 46 17 0
-14 49 24 50 39 0 6 11 12 25 12 18 0 23 4 18 15 -3 9 -1 15 5 13 5 -2 26 14
46 35 20 20 34 37 30 37 -4 0 0 8 8 18 26 30 44 159 25 178 -4 4 -4 18 -1 30
5 19 2 24 -12 25 -11 0 -14 3 -6 6 16 6 16 24 0 20 -7 -1 -13 5 -14 13 0 8 -2
20 -2 26 -2 13 -56 74 -66 74 -4 0 -18 11 -32 25 -14 14 -29 25 -33 25 -4 0
-21 11 -37 25 -26 23 -120 65 -145 65 -5 0 -17 4 -27 9 -16 9 -100 25 -192 38
-71 10 -370 14 -371 6z m-1329 -1243 c0 -5 -2 -10 -4 -10 -3 0 -8 5 -11 10 -3
6 -1 10 4 10 6 0 11 -4 11 -10z m-30 -80 c0 -5 -5 -10 -11 -10 -5 0 -7 5 -4
10 3 6 8 10 11 10 2 0 4 -4 4 -10z m-50 -120 c0 -5 -5 -10 -11 -10 -5 0 -7 5
-4 10 3 6 8 10 11 10 2 0 4 -4 4 -10z m5 -37 c-2 -10 -4 -26 -4 -35 -1 -10 -5
-18 -11 -18 -5 0 -7 7 -4 15 4 8 1 15 -5 15 -6 0 -3 9 6 20 21 24 22 25 18 3z
m-15 -94 c0 -10 -6 -19 -14 -19 -8 0 -12 -9 -11 -25 2 -14 -1 -27 -6 -31 -5
-3 -9 4 -9 15 0 10 -6 22 -12 24 -10 4 -9 8 2 17 12 9 13 12 1 17 -16 7 -1 18
29 20 14 1 20 -4 20 -18z m-18 -121 c-5 -20 -6 -20 -18 -3 -15 21 -10 37 10
29 8 -3 12 -14 8 -26z m-49 -53 c-3 -9 -8 -14 -10 -11 -3 3 -2 9 2 15 9 16 15
13 8 -4z m37 6 c0 -5 -7 -11 -14 -14 -10 -4 -13 -1 -9 9 6 15 23 19 23 5z
m-10 -41 c0 -5 -7 -10 -16 -10 -8 0 -12 5 -9 10 3 6 10 10 16 10 5 0 9 -4 9
-10z m4 -227 c-5 -5 -12 -12 -16 -18 -4 -6 -8 -2 -8 8 0 9 7 17 17 17 9 0 12
-3 7 -7z"/>
<path d="M29115 4360 c3 -5 11 -10 16 -10 6 0 7 5 4 10 -3 6 -11 10 -16 10 -6
0 -7 -4 -4 -10z"/>
<path d="M29075 4350 c-3 -5 -1 -10 4 -10 6 0 11 5 11 10 0 6 -2 10 -4 10 -3
0 -8 -4 -11 -10z"/>
<path d="M22585 4271 c-11 -3 -39 -16 -61 -28 -23 -12 -45 -19 -49 -15 -4 4
-5 0 -3 -8 3 -8 -2 -23 -10 -33 -13 -15 -14 -20 -3 -26 10 -6 10 -10 1 -13 -9
-3 -8 -29 4 -113 14 -105 17 -377 4 -390 -3 -3 -2 -22 2 -41 5 -20 4 -37 -2
-40 -5 -3 -7 -13 -4 -21 4 -9 2 -11 -6 -7 -8 5 -9 2 -5 -10 4 -10 4 -23 0 -29
-10 -16 -10 -57 0 -57 4 0 3 -9 -3 -19 -5 -11 -6 -22 -2 -25 11 -6 3 -66 -8
-66 -5 0 -6 -9 -3 -20 3 -11 1 -20 -4 -20 -6 0 -8 -24 -5 -55 2 -30 0 -55 -5
-55 -5 0 -10 -14 -11 -32 -2 -17 -7 -37 -13 -44 -7 -9 -7 -19 0 -33 14 -25 14
-34 0 -25 -8 4 -9 -1 -4 -16 5 -15 2 -26 -6 -32 -9 -6 -10 -11 -3 -14 13 -5 7
-87 -6 -92 -5 -2 -6 -10 -3 -18 3 -8 0 -14 -7 -14 -7 0 -9 -12 -6 -35 4 -24 2
-35 -7 -35 -8 0 -8 -3 -2 -8 6 -4 10 -16 9 -27 -6 -59 -12 -86 -23 -99 -6 -7
-9 -21 -5 -30 4 -9 1 -16 -6 -16 -8 0 -10 -9 -6 -24 3 -14 2 -27 -3 -30 -5 -3
-7 -15 -4 -26 3 -12 0 -20 -7 -20 -8 0 -10 -8 -6 -24 3 -14 2 -27 -4 -31 -5
-3 -7 -12 -3 -20 3 -9 1 -21 -4 -28 -5 -6 -9 -35 -8 -64 0 -28 -4 -49 -9 -46
-4 3 -5 -9 -1 -26 4 -18 3 -31 -3 -31 -6 0 -9 -11 -7 -25 1 -14 -2 -25 -7 -25
-5 0 -6 -5 -2 -11 3 -6 2 -14 -4 -18 -6 -3 -13 -26 -16 -51 -2 -25 -5 -45 -6
-45 -1 0 -3 -7 -5 -15 -1 -8 -9 -35 -16 -60 -7 -25 -14 -49 -15 -55 -1 -5 -3
-14 -4 -20 -1 -5 -2 -14 -1 -19 1 -5 -1 -16 -5 -25 -10 -22 -15 -50 -14 -89 1
-24 -3 -31 -11 -26 -8 4 -9 3 -5 -5 4 -6 3 -17 -2 -24 -5 -7 -12 -28 -15 -47
-4 -19 -9 -50 -12 -69 -3 -19 -9 -39 -12 -45 -4 -5 -8 -24 -10 -41 -2 -16 -12
-56 -23 -88 -11 -31 -20 -66 -20 -76 0 -11 -4 -22 -9 -25 -15 -10 -22 -76 -11
-110 7 -22 21 -37 46 -48 33 -15 39 -15 70 0 18 9 34 23 34 30 0 7 14 15 30
19 17 3 30 12 30 19 0 17 50 38 61 27 18 -19 19 -60 1 -95 l-19 -36 61 2 c64
3 116 19 116 35 0 5 18 12 40 16 27 5 46 16 62 37 13 16 28 35 34 42 6 6 15
22 18 34 4 12 12 22 17 22 5 0 9 7 9 15 0 8 4 15 9 15 10 0 27 39 23 53 -1 5
2 6 7 3 11 -7 61 50 61 70 0 8 7 14 15 14 8 0 15 5 15 11 0 17 50 60 61 54 5
-4 9 -2 9 3 0 13 36 53 43 46 3 -3 30 6 60 21 58 27 103 32 197 20 30 -4 71
-8 91 -10 20 -1 41 -5 45 -7 14 -8 156 -38 189 -40 17 -1 36 -6 42 -11 7 -5
19 -7 26 -4 7 3 37 -1 65 -8 28 -8 77 -16 108 -20 32 -3 61 -8 66 -11 8 -5 91
-15 136 -16 12 0 22 -3 22 -7 0 -3 26 -7 58 -9 31 -1 89 -7 127 -12 39 -5 113
-12 165 -15 52 -3 122 -8 155 -10 33 -3 85 -7 115 -9 30 -3 101 -10 156 -16
161 -19 177 -11 59 29 -101 34 -285 105 -317 122 -10 5 -23 9 -31 9 -7 0 -30
10 -52 21 -54 29 -152 66 -195 73 -19 3 -57 13 -85 22 -27 8 -67 18 -88 20
-21 2 -48 9 -59 15 -23 12 -146 43 -218 54 -41 6 -139 27 -260 55 -68 16 -111
22 -150 20 -19 0 -64 4 -100 9 -116 18 -252 23 -244 9 6 -10 4 -11 -7 0 -15
14 -43 16 -34 3 3 -6 -9 -7 -30 -4 -28 4 -35 2 -35 -11 0 -9 -7 -16 -15 -16
-8 0 -15 5 -15 11 0 5 5 7 10 4 6 -3 10 -2 10 4 0 5 -9 9 -21 8 -15 -1 -19 -7
-15 -20 4 -17 3 -18 -13 -3 -10 9 -27 16 -38 16 -22 0 -39 25 -23 35 5 3 9 13
9 23 0 9 9 51 20 92 12 41 21 85 21 98 0 12 4 22 9 22 4 0 6 11 3 25 -2 14 0
25 4 25 5 0 10 21 11 47 1 25 6 49 10 52 4 3 9 22 9 41 3 72 11 126 21 145 18
34 24 73 12 77 -8 3 -7 8 2 18 8 8 15 29 16 45 5 88 12 145 19 156 4 7 9 47
11 88 6 126 8 146 16 152 4 3 8 38 10 77 1 40 6 72 10 72 5 0 5 5 2 10 -3 6
-1 10 6 10 8 0 8 4 1 13 -12 15 -10 63 5 78 11 11 6 49 -7 49 -5 0 -4 15 2 33
10 30 17 109 20 224 0 29 5 50 9 47 5 -3 9 2 9 10 0 8 -5 18 -10 21 -6 3 -7
18 -4 33 11 51 6 152 -8 152 -5 0 -7 4 -4 9 3 5 -1 11 -9 15 -8 3 -15 13 -15
23 0 15 2 16 10 3 8 -12 10 -11 10 8 0 12 -6 22 -12 22 -8 1 -5 7 6 15 10 8
23 12 29 8 7 -4 8 6 4 27 -4 18 -7 37 -7 42 0 6 -6 8 -14 5 -10 -4 -14 0 -13
14 1 10 5 19 9 19 4 0 8 12 8 26 0 18 -6 28 -20 31 -16 4 -18 8 -9 19 14 17
-2 19 -19 2 -17 -17 -15 3 3 28 12 19 12 24 0 40 -8 11 -14 14 -15 7 0 -18
-20 -16 -20 2 0 8 -3 15 -7 16 -56 8 -89 6 -95 -4 -5 -8 -8 -6 -8 7 0 15 -5
17 -27 12 -66 -17 -84 -18 -98 -6 -8 7 -22 9 -31 6 -9 -4 -22 -2 -28 2 -6 5
-20 6 -31 3z m142 -787 c-3 -3 -12 -4 -19 -1 -8 3 -5 6 6 6 11 1 17 -2 13 -5z
m-99 -612 c2 -7 -2 -10 -12 -6 -9 3 -16 11 -16 16 0 13 23 5 28 -10z"/>
<path d="M14125 4225 c-135 -17 -179 -26 -360 -74 -16 -5 -68 -23 -115 -41
-587 -223 -1085 -600 -1508 -1140 -166 -212 -322 -449 -322 -490 0 -20 39 -50
57 -43 33 11 54 37 150 178 275 403 554 703 885 953 356 267 725 444 1084 517
145 30 423 35 572 9 327 -55 631 -232 781 -452 154 -227 150 -451 -12 -724
-21 -36 -21 -38 -4 -55 23 -23 39 -13 94 58 54 70 119 198 140 274 28 103 17
241 -30 372 -47 134 -215 327 -373 429 -141 91 -284 154 -424 187 -236 57
-405 68 -615 42z"/>
<path d="M25856 4102 c-2 -4 -1 -14 5 -22 5 -8 9 -19 9 -25 -1 -5 -5 -2 -11 8
-7 12 -15 15 -27 8 -9 -5 -33 -7 -52 -6 -42 3 -60 -9 -60 -42 0 -13 -4 -22 -9
-19 -13 9 -21 -35 -10 -55 6 -11 5 -20 -1 -24 -5 -3 -10 -3 -11 2 0 4 -5 -3
-10 -16 -6 -15 -6 -28 1 -36 8 -9 6 -14 -4 -18 -14 -5 -30 -65 -31 -117 0 -14
-7 -45 -15 -70 -15 -50 -15 -46 -5 -79 5 -18 4 -22 -6 -16 -9 6 -11 2 -7 -13
4 -14 2 -20 -4 -16 -7 5 -9 -5 -4 -29 4 -21 2 -37 -4 -39 -10 -3 -24 -94 -23
-150 0 -16 -3 -28 -7 -28 -4 0 -7 -6 -8 -12 0 -7 -4 -35 -8 -63 -3 -27 -6 -65
-6 -82 0 -18 -3 -33 -7 -33 -4 0 -8 -15 -9 -32 -2 -18 -4 -46 -5 -63 -1 -16
-6 -33 -10 -36 -4 -3 -9 -39 -10 -80 -2 -41 -6 -80 -10 -86 -5 -7 -5 -17 -2
-23 3 -5 2 -10 -2 -10 -5 0 -8 -12 -7 -27 1 -16 -4 -37 -10 -48 -7 -11 -13
-38 -15 -59 -1 -22 -5 -44 -8 -50 -4 -5 -8 -24 -10 -41 -1 -16 -7 -50 -13 -75
-5 -25 -12 -57 -14 -72 -2 -14 -9 -35 -15 -46 -6 -11 -8 -22 -5 -25 3 -3 2
-12 -2 -19 -5 -7 -9 -26 -10 -43 -1 -38 -14 -97 -24 -110 -4 -5 -13 -37 -20
-70 -6 -33 -14 -67 -17 -75 -3 -8 -7 -28 -9 -45 -2 -16 -8 -39 -13 -50 -11
-24 -35 -126 -51 -220 -7 -38 -14 -81 -17 -95 -4 -14 -5 -35 -4 -48 2 -13 -2
-29 -9 -37 -6 -7 -13 -21 -15 -31 -2 -11 -8 -34 -14 -51 -6 -20 -6 -33 0 -33
5 0 9 -5 9 -11 0 -5 -4 -8 -9 -5 -5 3 -12 -5 -15 -19 -8 -31 19 -85 45 -92 10
-3 17 -9 14 -13 -9 -14 15 -22 29 -11 8 7 18 11 22 10 21 -4 44 2 56 14 7 6
36 24 64 38 l51 27 -7 -34 c-4 -18 -6 -35 -3 -38 3 -2 0 -14 -6 -25 -11 -19
-9 -20 49 -18 33 1 60 5 60 8 0 7 32 19 70 26 14 2 30 9 35 16 6 7 17 11 27 9
9 -2 19 5 22 16 4 10 29 31 57 47 28 15 53 33 56 41 3 8 11 14 19 14 8 0 14 5
14 10 0 6 6 10 13 10 16 1 95 39 82 40 -21 1 41 29 67 30 15 0 39 5 55 11 15
6 37 13 48 15 27 7 360 7 410 0 49 -6 280 -16 475 -21 80 -2 190 -7 245 -11
92 -6 98 -5 83 10 -9 9 -20 16 -23 16 -4 0 -55 21 -114 46 -58 26 -131 55
-161 66 -64 23 -220 68 -229 66 -3 -1 -13 1 -21 5 -15 6 -135 26 -281 47 -109
16 -369 21 -369 8 0 -7 -14 -8 -35 -5 -21 3 -33 2 -30 -4 4 -5 0 -9 -9 -9 -8
0 -17 6 -19 13 -3 7 -6 5 -6 -5 -1 -19 -31 -25 -31 -7 0 8 -4 8 -15 -1 -8 -6
-18 -9 -24 -6 -5 3 -20 2 -32 -3 -13 -4 -36 -5 -51 -1 -18 6 -28 4 -31 -5 -3
-7 -15 -15 -27 -18 -16 -4 -23 0 -29 16 -5 12 -7 25 -4 29 2 5 6 16 8 25 2 10
11 45 20 78 9 33 19 74 22 90 3 17 9 35 13 40 5 6 11 33 15 60 4 28 11 55 15
60 4 6 11 30 14 54 3 24 10 49 15 55 4 6 9 18 9 26 2 26 9 65 12 65 3 0 8 29
14 75 2 14 5 27 6 30 2 3 4 12 4 20 7 68 21 147 36 210 21 84 30 138 36 220 7
87 9 104 16 116 4 6 12 59 18 119 5 59 15 114 21 122 7 7 9 16 6 20 -4 3 -2
14 4 24 7 13 6 19 -1 19 -6 0 -8 4 -5 10 3 5 8 49 10 97 3 48 7 95 11 105 7
24 16 90 18 148 2 25 6 53 10 63 5 10 3 23 -4 31 -8 10 -9 25 -2 48 5 18 6 57
2 85 -3 29 -2 59 3 68 5 10 4 21 -3 30 -8 10 -8 14 2 18 10 4 10 6 -1 6 -10 1
-11 4 -2 15 8 9 8 21 0 44 -9 25 -14 30 -27 23 -19 -10 -58 -8 -68 2 -4 4 -1
7 6 7 22 0 1 14 -27 18 -19 2 -24 -1 -20 -12 3 -8 -2 -16 -14 -19 -10 -3 -19
-1 -19 4 0 4 -10 14 -22 20 -19 9 -21 9 -10 -2 6 -7 12 -18 12 -23 0 -8 -3 -8
-8 -1 -7 11 -58 45 -66 45 -3 0 -7 -4 -10 -8z m38 -18 c21 -8 21 -24 0 -24 -8
0 -13 4 -10 9 4 5 0 12 -6 14 -7 3 -10 6 -6 6 3 1 13 -2 22 -5z m21 -63 c-3
-12 -10 -21 -15 -21 -4 0 -3 11 3 24 14 29 22 27 12 -3z m-17 -130 c10 -6 8
-10 -9 -14 -13 -4 -25 -4 -28 -2 -2 3 1 5 8 5 7 0 9 5 6 10 -8 12 5 13 23 1z
m-8 -56 c0 -8 -2 -15 -4 -15 -2 0 -6 7 -10 15 -3 8 -1 15 4 15 6 0 10 -7 10
-15z m15 -85 c3 -5 -1 -10 -10 -10 -9 0 -13 5 -10 10 3 6 8 10 10 10 2 0 7 -4
10 -10z m-28 -115 c0 -8 -4 -12 -9 -9 -5 3 -6 10 -3 15 9 13 12 11 12 -6z
m-33 -197 c-3 -4 -12 -8 -20 -8 -8 0 -13 4 -10 8 3 5 12 9 20 9 8 0 13 -4 10
-9z m0 -37 c6 -10 -16 -21 -42 -21 -13 0 -12 3 4 15 22 17 31 18 38 6z m-16
-72 c-2 -36 -16 -66 -19 -40 -3 21 -4 26 -13 39 -5 9 -1 18 10 27 26 19 25 20
22 -26z m-48 -363 c0 -2 -7 -7 -16 -10 -8 -3 -12 -2 -9 4 6 10 25 14 25 6z
m-25 -56 c-3 -5 -10 -10 -16 -10 -5 0 -9 5 -9 10 0 6 7 10 16 10 8 0 12 -4 9
-10z"/>
<path d="M15905 4056 c-146 -47 -311 -143 -334 -194 -14 -29 5 -62 36 -62 13
0 74 27 135 59 154 81 232 105 335 105 72 0 87 -3 130 -30 259 -158 -55 -678
-644 -1069 -40 -26 -75 -56 -79 -67 -6 -20 11 -48 30 -48 20 0 264 147 370
222 187 133 405 370 469 508 62 137 82 220 75 313 -10 118 -65 202 -165 253
-53 27 -68 29 -173 31 -96 2 -126 -1 -185 -21z"/>
<path d="M1468 4055 c-2 -2 -79 -5 -173 -9 -160 -5 -275 -12 -355 -21 -19 -2
-57 -6 -85 -9 -133 -14 -162 -18 -190 -27 -16 -5 -65 -13 -108 -19 -99 -12
-219 -52 -282 -95 -41 -27 -57 -32 -88 -28 -43 6 -98 -16 -122 -50 -17 -24
-20 -73 -5 -82 5 -3 7 -12 3 -20 -3 -9 2 -26 11 -40 9 -13 16 -35 16 -48 0
-12 4 -27 9 -33 6 -5 15 -29 21 -54 13 -52 15 -60 23 -80 4 -8 14 -48 22 -89
8 -40 18 -78 22 -84 4 -6 7 -25 7 -42 1 -16 6 -29 11 -28 6 1 11 -15 11 -35 4
-96 15 -176 25 -188 6 -7 9 -17 6 -21 -3 -4 -1 -35 4 -67 15 -95 17 -116 9
-121 -4 -3 -5 -40 -3 -82 8 -119 2 -330 -12 -463 -3 -25 -7 -71 -9 -103 -4
-56 -13 -133 -22 -190 -2 -15 -6 -46 -8 -70 -3 -23 -8 -67 -11 -97 -32 -260
-30 -306 9 -346 19 -19 56 -35 56 -25 0 5 12 16 28 24 15 8 41 22 59 33 17 10
34 16 37 13 3 -3 7 -24 8 -47 1 -40 3 -42 34 -42 32 0 94 28 94 43 0 4 5 7 11
7 5 0 22 13 37 29 l27 29 215 6 c213 7 348 13 425 21 22 2 74 7 115 10 41 3
82 8 90 10 8 3 62 7 120 10 58 3 128 9 155 14 28 6 102 17 165 26 201 29 693
133 709 151 6 7 -618 -3 -684 -10 -22 -3 -95 -7 -162 -10 -68 -3 -128 -8 -134
-11 -6 -4 -50 -9 -97 -11 -119 -5 -251 -13 -352 -23 -47 -4 -181 -7 -299 -7
l-214 1 -1 40 c-1 22 0 45 3 50 6 10 8 27 15 106 2 25 7 55 10 66 4 13 69 61
159 118 186 120 173 112 282 170 50 26 97 53 105 59 8 6 32 20 52 30 21 10 35
23 31 29 -3 6 -1 7 5 3 12 -7 196 80 422 200 113 59 179 97 404 227 39 22 80
51 93 65 26 28 30 73 9 91 -50 42 -262 66 -511 57 -211 -7 -545 -36 -545 -47
0 -4 -8 -5 -17 -3 -10 3 -70 -2 -133 -9 -63 -8 -119 -12 -124 -9 -4 2 22 23
58 46 36 22 66 44 66 47 0 6 -112 -12 -185 -31 -22 -5 -57 -10 -77 -10 -21 0
-38 -4 -38 -10 0 -14 -23 -12 -54 4 -24 12 -25 15 -11 29 13 13 13 20 3 44 -7
15 -17 31 -22 34 -5 4 -5 24 2 49 10 39 9 43 -10 48 -19 5 -20 6 -4 17 15 12
15 14 1 29 -9 9 -12 16 -6 16 12 0 7 41 -16 118 -9 30 -22 52 -30 52 -9 0 -13
12 -12 38 0 20 -4 71 -10 112 -20 147 -30 265 -23 272 9 9 166 43 293 64 317
51 800 64 1154 29 116 -12 343 -40 433 -54 56 -9 314 -40 455 -55 20 -2 37 -1
37 3 0 13 -75 79 -109 96 -108 54 -540 132 -861 155 -131 10 -466 20 -472 15z
m522 -1256 c0 -37 -293 -223 -676 -430 -162 -87 -606 -309 -619 -309 -9 0 -12
12 -9 43 12 141 23 369 22 475 0 67 2 125 4 128 3 3 43 7 89 10 46 2 98 7 115
9 87 14 579 56 859 74 205 13 215 13 215 0z"/>
<path d="M6580 4018 c0 -4 -16 -8 -35 -8 -70 0 -91 -69 -59 -189 9 -29 13 -65
9 -80 -10 -47 -14 -94 -16 -189 -2 -90 -2 -94 -27 -103 -14 -5 -33 -7 -41 -3
-9 3 -117 8 -239 10 -170 3 -231 0 -255 -10 -18 -7 -41 -10 -52 -6 -12 4 -25
1 -33 -7 -7 -7 -25 -13 -38 -13 -14 0 -43 -14 -65 -32 -46 -37 -51 -70 -16
-102 28 -26 31 -26 422 -29 l300 -2 -3 -110 c-1 -60 -7 -166 -12 -235 -21
-253 -29 -434 -35 -764 -3 -137 -7 -251 -9 -253 -2 -2 1 -24 5 -49 5 -26 5
-53 0 -62 -12 -24 8 -163 27 -184 8 -10 11 -18 6 -18 -14 -1 39 -40 54 -40 6
0 12 9 12 20 0 11 6 20 14 20 9 0 12 7 9 18 -3 14 1 19 19 18 17 -1 22 4 20
19 -3 20 -2 20 13 1 15 -19 15 -19 15 2 0 12 5 22 10 22 12 0 11 -60 -1 -76
-9 -11 16 -36 42 -43 54 -14 55 -14 35 3 -10 8 -24 17 -30 19 -6 2 -8 8 -4 12
4 4 18 1 30 -6 13 -8 37 -13 54 -11 25 2 35 11 53 48 35 69 61 285 38 313 -9
11 -9 13 0 8 8 -5 12 2 12 20 0 16 2 39 5 53 3 14 6 92 7 175 1 82 5 160 10
172 8 23 42 32 53 15 3 -5 45 -19 93 -32 48 -13 94 -28 101 -33 6 -5 12 -24
12 -42 0 -36 34 -141 53 -164 7 -9 18 -28 25 -43 16 -39 128 -154 163 -168 16
-7 29 -16 29 -20 0 -15 195 -106 250 -117 172 -36 309 -40 390 -11 31 10 41
28 16 28 -34 0 -316 134 -375 178 -80 60 -177 179 -196 242 -4 14 -12 31 -18
38 -15 18 10 34 42 27 38 -9 320 -6 381 4 106 18 232 53 277 76 15 8 33 15 39
15 6 0 32 16 57 35 25 19 51 35 56 35 6 0 11 5 11 10 0 6 11 22 25 36 14 14
32 39 41 56 18 34 28 144 14 153 -5 3 -7 12 -3 20 3 8 0 15 -6 15 -6 0 -11 7
-11 15 0 8 -7 15 -15 15 -8 0 -15 9 -15 20 0 11 -6 20 -13 20 -7 0 -17 10 -22
22 -6 13 -19 24 -30 26 -11 2 -24 9 -30 16 -36 43 -132 81 -222 89 -29 3 -56
7 -60 10 -18 11 -173 17 -173 6 0 -6 -10 -9 -22 -7 -13 2 -28 -3 -34 -11 -9
-11 -14 -11 -31 -1 -17 11 -24 10 -43 -3 -12 -8 -28 -13 -35 -11 -7 3 -16 1
-19 -5 -4 -6 -13 -8 -21 -4 -9 3 -27 -2 -41 -12 -14 -9 -38 -19 -52 -21 -15
-3 -31 -12 -35 -20 -4 -8 -15 -14 -23 -14 -17 0 -77 -37 -119 -74 -16 -14 -34
-26 -40 -26 -46 -1 -251 -23 -295 -31 -30 -5 -68 -11 -85 -12 l-30 -2 3 294
c1 162 5 297 8 300 3 3 44 8 90 10 46 1 84 6 84 10 0 3 -39 20 -86 36 -48 17
-88 35 -91 41 -2 7 -6 119 -7 250 -3 237 -4 257 -19 282 -5 7 -5 21 -2 32 4
11 3 20 -2 20 -4 0 -14 14 -22 30 -10 23 -18 29 -32 25 -10 -4 -24 -3 -31 2
-17 10 -158 11 -158 1z m20 -408 c0 -5 -4 -10 -10 -10 -5 0 -10 5 -10 10 0 6
5 10 10 10 6 0 10 -4 10 -10z m60 -140 c0 -4 -6 -10 -14 -13 -10 -4 -12 0 -9
14 5 18 23 18 23 -1z m1247 -706 c31 -4 50 -11 48 -18 -3 -6 13 -23 35 -38 75
-52 96 -148 43 -197 -28 -26 -98 -61 -122 -61 -11 0 -23 -5 -26 -11 -4 -6 -13
-8 -21 -5 -7 3 -15 2 -18 -2 -5 -9 -265 -7 -343 3 -32 4 -61 12 -65 18 -15 25
63 150 123 197 18 14 42 35 54 48 12 12 27 22 32 22 6 0 24 7 42 16 17 9 46
18 64 21 18 3 34 7 36 9 6 6 58 5 118 -2z m-731 -136 c-9 -13 -24 -39 -33 -58
-10 -19 -19 -37 -20 -39 -2 -2 -21 2 -43 9 -55 18 -49 37 25 77 73 40 94 43
71 11z m-579 -624 c-3 -3 -12 -4 -19 -1 -8 3 -5 6 6 6 11 1 17 -2 13 -5z m-10
-80 c-3 -3 -12 -4 -19 -1 -8 3 -5 6 6 6 11 1 17 -2 13 -5z m8 -34 c-3 -5 -11
-10 -16 -10 -6 0 -7 5 -4 10 3 6 11 10 16 10 6 0 7 -4 4 -10z m-11 -56 c9 -24
7 -44 -5 -44 -5 0 -9 8 -7 18 1 9 -1 23 -5 30 -5 6 -4 12 1 12 6 0 13 -7 16
-16z m11 -144 c3 -5 -1 -10 -9 -10 -9 0 -16 5 -16 10 0 6 4 10 9 10 6 0 13 -4
16 -10z"/>
<path d="M19335 3738 c-169 -45 -417 -132 -670 -233 -758 -305 -1066 -510
-1227 -819 -56 -109 -78 -197 -78 -325 0 -155 28 -247 123 -397 57 -91 86
-115 112 -94 19 16 13 50 -14 89 -28 41 -52 99 -92 231 -21 69 -19 271 5 340
87 256 272 431 675 633 286 144 813 352 1131 447 237 70 276 92 244 138 -21
30 -70 28 -209 -10z"/>
<path d="M14350 3648 c-11 -12 -20 -29 -20 -37 1 -25 25 -51 47 -51 18 0 94
-51 131 -87 24 -23 283 -247 316 -272 142 -112 349 -330 385 -407 50 -106 18
-207 -125 -396 -43 -57 -112 -148 -154 -203 -42 -55 -79 -108 -83 -117 -9 -25
19 -51 42 -38 27 14 254 248 306 314 141 182 184 327 137 458 -38 107 -216
301 -471 514 -85 71 -193 162 -240 203 -166 142 -225 168 -271 119z"/>
<path d="M19691 3651 c-8 -5 -14 -23 -14 -39 0 -32 26 -72 109 -168 789 -904
910 -1063 1185 -1557 209 -375 308 -604 360 -832 18 -80 19 -325 0 -385 -70
-234 -223 -378 -477 -452 -71 -21 -100 -23 -284 -23 -132 0 -228 5 -270 13
-166 34 -210 44 -275 63 -63 18 -178 58 -230 79 -11 4 -45 18 -75 30 -67 27
-218 103 -244 122 -17 14 -17 17 18 86 20 40 45 95 56 122 11 27 35 82 54 122
38 82 51 157 36 207 -5 19 -7 37 -5 40 10 9 58 -46 97 -112 41 -69 144 -177
208 -220 44 -29 126 -64 199 -85 73 -20 339 -23 393 -4 45 16 62 35 53 62 -6
19 -14 20 -118 20 -105 0 -228 16 -321 41 -118 32 -260 146 -324 261 -47 84
-86 124 -160 160 -50 25 -81 33 -124 34 -35 1 -74 10 -102 23 -25 11 -59 21
-76 21 -16 0 -30 4 -30 9 0 5 32 37 70 71 55 49 70 68 70 90 0 42 -27 46 -77
10 -24 -16 -46 -30 -49 -30 -19 0 -195 -145 -222 -184 -34 -47 -92 -176 -92
-205 0 -24 20 -41 46 -41 25 0 84 45 84 63 0 21 57 132 77 149 18 17 21 17 58
-2 22 -11 45 -20 52 -20 14 0 92 -42 136 -72 42 -30 57 -69 57 -145 0 -57 -7
-85 -45 -178 -52 -126 -92 -190 -159 -256 -243 -240 -680 -93 -802 271 -15 43
-19 85 -19 190 0 122 3 144 29 225 79 242 242 487 511 764 135 139 270 251
397 329 108 67 133 92 124 126 -5 22 -12 26 -42 26 -42 0 -69 -13 -194 -95
-161 -105 -319 -248 -499 -450 -64 -72 -223 -282 -251 -333 l-21 -37 -122 -3
c-121 -3 -136 0 -223 39 -63 28 -92 33 -109 19 -30 -25 -17 -48 54 -90 117
-69 199 -85 296 -55 27 8 51 13 53 11 2 -2 -5 -21 -16 -43 -114 -228 -139
-488 -67 -687 126 -347 523 -538 821 -395 34 17 80 45 102 64 22 19 44 35 50
35 5 0 36 -18 69 -39 476 -308 965 -416 1400 -311 147 35 283 111 388 217 106
107 160 207 204 379 19 71 13 269 -10 379 -21 102 -73 266 -112 359 -59 139
-215 439 -349 671 -133 231 -334 516 -481 685 -22 25 -99 113 -171 195 -72 83
-223 255 -336 384 -187 214 -265 291 -294 291 -6 0 -17 -4 -25 -9z"/>
<path d="M5049 3230 c-90 -11 -209 -40 -209 -52 0 -6 -7 -7 -16 -4 -24 9 -200
-80 -262 -132 -91 -76 -109 -147 -57 -223 29 -41 106 -99 153 -113 12 -4 22
-12 22 -17 0 -5 8 -9 18 -9 10 0 48 -16 85 -35 37 -19 67 -33 67 -31 0 5 116
-55 207 -105 24 -13 43 -30 43 -36 0 -7 10 -13 23 -13 15 0 49 -25 98 -73 91
-88 103 -122 66 -196 -40 -82 -115 -138 -207 -156 -19 -4 -40 -11 -45 -16 -6
-4 -20 -8 -30 -7 -11 0 -67 -5 -124 -12 -57 -7 -137 -10 -177 -8 -71 3 -75 2
-81 -20 -3 -13 -3 -42 0 -65 7 -49 24 -64 106 -90 43 -14 56 -15 63 -5 6 10
10 10 18 -2 16 -25 293 -20 392 7 42 12 86 27 97 32 11 6 27 11 36 11 19 0
145 80 145 92 0 4 5 8 10 8 13 0 80 71 80 86 0 6 9 21 19 33 11 13 25 48 32
79 18 89 -8 179 -75 255 -14 15 -27 27 -30 27 -3 0 -18 13 -33 29 -16 16 -37
30 -48 32 -11 3 -20 10 -20 17 0 13 -7 17 -82 59 -45 25 -58 39 -66 71 -5 22
7 31 18 12 11 -18 23 -10 49 34 15 25 23 52 20 61 -5 11 0 18 15 22 11 3 18 9
15 14 -3 5 1 19 8 31 7 13 11 26 10 30 -1 4 5 5 13 2 11 -4 13 -2 9 9 -3 8 0
18 5 22 6 3 8 11 5 17 -5 7 -1 9 9 5 16 -6 21 4 20 40 -1 7 3 10 8 8 8 -6 15
25 24 106 4 39 1 51 -20 75 -14 16 -25 31 -25 34 0 6 -60 35 -75 36 -5 0 -17
4 -25 7 -24 9 -167 27 -203 26 -18 -1 -62 -5 -98 -9z m146 -187 c14 -15 25
-31 25 -35 0 -5 7 -8 15 -8 17 0 19 -9 6 -30 -6 -8 -7 -19 -3 -25 3 -5 8 -18
9 -28 5 -33 23 -56 38 -51 8 4 12 10 9 15 -3 5 2 9 11 9 11 0 15 -5 12 -14 -4
-10 -1 -13 8 -10 22 9 27 38 15 99 -1 6 -2 17 -1 25 2 31 29 -25 28 -60 -1
-20 2 -43 6 -53 3 -9 2 -17 -2 -17 -15 0 -22 -32 -10 -46 9 -12 9 -13 -3 -9
-11 4 -17 -3 -21 -24 -7 -32 -31 -42 -40 -17 -3 7 1 25 8 39 16 32 0 62 -28
51 -20 -7 -23 -44 -4 -63 7 -8 7 -11 1 -8 -7 4 -17 -7 -24 -26 -29 -75 -35
-87 -50 -90 -8 -1 -30 7 -48 20 -18 12 -54 29 -80 39 -26 10 -52 21 -59 26 -6
5 -47 26 -90 47 -82 40 -143 85 -143 105 0 35 103 95 235 137 117 36 147 37
180 2z m95 -73 c0 -5 -5 -10 -11 -10 -5 0 -7 5 -4 10 3 6 8 10 11 10 2 0 4 -4
4 -10z"/>
<path d="M3315 3014 c-14 -10 -32 -14 -56 -10 -40 6 -100 -10 -112 -30 -4 -7
-22 -12 -39 -12 -18 1 -34 -4 -36 -10 -2 -7 -12 -12 -22 -12 -10 0 -20 -3 -22
-7 -1 -5 -32 -23 -68 -42 -36 -19 -79 -49 -96 -65 -18 -17 -46 -42 -64 -56
-57 -44 -120 -113 -126 -137 -4 -12 -14 -23 -23 -23 -25 0 -141 -184 -141
-225 0 -8 -4 -15 -8 -15 -16 0 -32 -77 -32 -156 0 -85 22 -167 52 -195 10 -9
18 -21 18 -27 0 -28 150 -105 158 -81 5 12 30 11 34 -1 2 -6 42 -13 89 -17 66
-4 104 -1 160 12 87 21 214 81 283 133 27 20 57 42 66 47 10 6 25 16 33 23 22
19 27 4 31 -85 3 -72 30 -183 45 -183 3 0 13 -14 20 -32 17 -37 59 -80 72 -72
5 3 9 0 9 -6 0 -17 87 -52 134 -55 23 -1 52 -5 65 -10 16 -5 21 -4 17 4 -5 8
0 8 19 1 61 -23 233 1 320 44 17 8 41 17 55 20 41 8 123 52 149 80 14 14 30
26 38 26 17 0 53 31 53 47 0 7 6 13 13 13 15 0 45 53 53 97 5 26 -14 113 -33
145 -2 4 -22 -4 -44 -17 -21 -14 -61 -34 -87 -44 -26 -10 -64 -29 -84 -41 -21
-12 -42 -19 -48 -15 -5 3 -10 -1 -10 -9 0 -10 -9 -16 -24 -16 -13 0 -29 -7
-36 -15 -7 -8 -16 -13 -20 -10 -4 3 -19 -6 -32 -18 -14 -13 -31 -21 -38 -19
-7 3 -10 0 -6 -6 6 -11 -29 -28 -50 -24 -6 1 -17 -5 -24 -13 -20 -24 -73 -19
-98 10 -12 14 -28 25 -34 26 -7 0 -4 4 7 9 18 8 19 9 1 9 -12 1 -16 6 -13 16
4 8 2 17 -4 20 -5 4 -7 10 -4 15 3 4 -2 11 -11 14 -13 5 -14 9 -5 20 9 11 8
15 -5 20 -13 5 -14 10 -6 18 6 6 8 18 3 27 -8 16 10 225 24 271 10 33 33 50
67 50 15 0 28 5 28 10 0 6 6 10 13 10 6 0 32 18 56 40 25 22 47 40 50 40 23 0
62 175 45 202 -5 7 -9 18 -9 23 -2 21 -19 51 -42 72 -13 12 -23 25 -23 28 0 6
-43 48 -77 76 -18 14 -44 27 -61 29 -4 1 -14 7 -22 15 -18 16 -90 36 -145 41
-22 2 -61 8 -86 15 -48 11 -166 8 -186 -4 -6 -4 -14 -3 -18 3 -9 14 -27 12
-50 -6z m203 -201 c68 -52 102 -107 102 -168 0 -36 -10 -48 -55 -62 -19 -6
-43 -29 -66 -62 -55 -80 -256 -281 -329 -331 -103 -70 -198 -112 -254 -114
l-49 -1 -26 50 c-20 38 -27 68 -30 127 -3 72 -1 83 29 140 47 90 54 101 66
113 6 5 31 37 54 70 45 63 89 108 145 151 39 29 167 94 187 94 8 0 18 4 24 9
12 13 69 20 122 15 27 -2 57 -14 80 -31z m-788 -348 c0 -8 -4 -15 -10 -15 -5
0 -10 7 -10 15 0 8 5 15 10 15 6 0 10 -7 10 -15z m-40 -35 c0 -5 -5 -10 -11
-10 -5 0 -7 5 -4 10 3 6 8 10 11 10 2 0 4 -4 4 -10z m-10 -36 c0 -8 -4 -12
-10 -9 -5 3 -10 10 -10 16 0 5 5 9 10 9 6 0 10 -7 10 -16z"/>
<path d="M13896 3007 c-12 -9 -17 -23 -14 -42 3 -30 13 -39 188 -175 172 -133
376 -353 449 -484 38 -68 71 -184 71 -251 0 -201 -157 -394 -374 -460 -188
-57 -393 -15 -531 110 -27 25 -52 45 -56 45 -23 0 -39 -15 -39 -36 0 -28 101
-131 176 -179 305 -199 772 -24 910 340 49 129 40 297 -22 432 -77 167 -250
363 -489 554 -169 135 -235 171 -269 146z"/>
<path d="M16515 2971 c-85 -24 -129 -47 -185 -98 -95 -85 -144 -236 -121 -373
45 -276 271 -519 671 -724 127 -65 204 -96 420 -169 232 -77 250 -80 250 -32
0 27 -12 37 -65 54 -157 50 -232 82 -410 172 -419 212 -647 412 -726 635 -63
177 -15 325 127 395 58 29 80 34 159 37 140 6 229 -17 426 -112 100 -48 127
-54 147 -34 49 49 -47 128 -249 208 -143 57 -327 74 -444 41z"/>
<path d="M10885 2963 c-183 -25 -358 -131 -492 -298 -28 -36 -32 -38 -38 -20
-21 62 -33 84 -68 122 -57 62 -88 74 -181 72 -46 -1 -95 -9 -117 -18 -36 -15
-40 -25 -30 -83 1 -3 14 -9 30 -13 94 -20 115 -167 55 -380 -14 -49 -26 -97
-28 -105 -1 -8 -8 -35 -15 -60 -14 -49 -14 -49 -25 -100 -10 -50 -16 -89 -22
-140 -2 -25 -7 -69 -11 -99 -5 -44 -3 -55 11 -63 9 -5 14 -13 11 -19 -12 -18
46 -9 67 11 21 19 68 27 81 14 3 -3 2 -16 -3 -28 -7 -20 -5 -22 25 -24 19 -2
37 4 45 13 7 8 18 15 26 15 25 0 53 43 59 89 4 25 10 56 15 69 6 14 6 22 0 22
-6 0 -10 7 -10 15 0 8 7 15 16 15 11 0 15 6 11 20 -3 11 -1 20 5 20 6 0 8 6 5
13 -3 7 3 31 14 53 10 21 18 42 19 46 0 4 5 19 12 35 6 15 12 35 14 43 2 8 7
23 13 35 11 23 24 57 25 66 1 8 46 110 59 134 105 196 99 189 198 285 67 66
130 104 226 135 105 34 175 -6 239 -136 38 -76 58 -118 154 -324 74 -158 175
-355 182 -355 4 0 8 -5 8 -11 0 -16 81 -149 91 -149 5 0 9 -6 9 -13 0 -7 23
-39 52 -71 144 -162 306 -219 603 -212 136 4 158 7 237 34 90 32 229 99 263
127 19 15 17 16 -30 9 -178 -24 -458 -24 -574 0 -86 18 -151 51 -220 112 -61
55 -176 205 -235 309 -63 112 -126 237 -126 251 0 8 -4 14 -8 14 -4 0 -14 15
-20 34 -7 19 -23 49 -35 68 -12 18 -29 52 -36 75 -8 23 -25 52 -37 64 -13 13
-24 28 -24 34 0 7 -9 23 -19 36 -83 104 -100 119 -166 153 -111 57 -201 74
-310 59z"/>
<path d="M19080 2926 c-164 -57 -210 -76 -354 -146 -441 -216 -905 -593 -1051
-854 -65 -116 -77 -160 -78 -276 -2 -141 23 -207 121 -328 48 -58 178 -155
276 -204 86 -43 291 -118 324 -118 11 0 25 7 33 16 21 25 0 46 -82 80 -82 34
-232 116 -324 177 -86 58 -176 153 -210 222 -25 52 -29 71 -29 145 0 69 5 97
26 146 151 359 799 839 1402 1039 145 48 175 63 182 91 17 67 -60 70 -236 10z"/>
<path d="M9390 2918 c-19 -4 -51 -10 -70 -12 -47 -7 -97 -28 -139 -60 -19 -14
-41 -26 -48 -26 -7 0 -13 -5 -13 -12 0 -6 -3 -9 -6 -6 -6 6 -19 -4 -90 -73
-40 -40 -74 -45 -74 -12 0 10 -6 13 -16 9 -8 -3 -12 -2 -9 3 12 21 -38 31
-188 36 -44 2 -81 6 -84 9 -3 3 -17 -3 -30 -14 -14 -11 -40 -22 -59 -26 -19
-3 -34 -10 -34 -15 0 -5 -8 -9 -17 -9 -13 0 -15 -2 -5 -8 10 -7 10 -15 3 -36
-12 -29 3 -66 25 -66 7 0 14 -7 18 -15 4 -10 13 -14 28 -10 35 9 38 1 85 -195
16 -69 24 -360 9 -360 -5 0 -6 -14 -2 -30 3 -17 1 -41 -4 -55 -6 -16 -6 -26 1
-31 6 -3 9 -17 6 -31 -3 -15 1 -27 9 -30 11 -4 12 -9 3 -19 -8 -10 -5 -13 18
-11 21 2 28 -2 27 -15 -1 -10 2 -18 7 -18 5 0 9 7 9 16 0 8 5 12 11 9 6 -4 9
0 7 10 -2 11 9 24 32 36 19 10 41 23 48 29 19 17 40 -4 36 -38 -4 -36 3 -59
22 -66 9 -3 12 -2 9 5 -5 7 5 8 29 4 36 -7 66 9 66 36 0 8 4 8 16 -2 14 -11
18 -10 30 5 7 11 11 22 9 27 -3 4 -1 9 5 11 6 2 13 30 16 63 3 33 8 67 11 75
3 8 7 48 9 88 1 41 5 85 8 98 4 14 3 32 -2 41 -6 10 -5 25 3 42 7 14 16 44 19
66 4 22 10 61 15 88 4 26 5 47 2 47 -3 0 -1 4 5 8 15 10 28 52 16 52 -17 0 -6
33 12 40 17 6 17 7 1 20 -16 13 -15 14 4 22 12 4 21 16 21 26 0 10 3 22 8 26
4 4 7 11 7 14 3 36 47 102 67 102 5 0 23 10 39 23 26 19 43 22 115 22 47 0 88
-5 92 -10 11 -16 125 -88 139 -88 7 0 10 -4 8 -8 -8 -12 79 -99 98 -99 9 0 17
-7 17 -15 0 -8 5 -15 10 -15 15 0 12 11 -20 78 -16 34 -30 66 -30 70 0 24
-106 123 -158 148 -62 29 -158 44 -212 32z m-217 -163 c-3 -9 -8 -14 -10 -11
-3 3 -2 9 2 15 9 16 15 13 8 -4z m-27 -35 c0 -11 -3 -20 -6 -20 -3 0 -14 -16
-24 -35 -11 -19 -25 -35 -33 -35 -17 0 -17 15 1 32 7 8 21 28 30 46 19 36 32
41 32 12z m-69 -126 c-3 -3 -12 -4 -19 -1 -8 3 -5 6 6 6 11 1 17 -2 13 -5z
m-232 -144 c-3 -5 -11 -10 -16 -10 -6 0 -7 5 -4 10 3 6 11 10 16 10 6 0 7 -4
4 -10z m-5 -63 c0 -5 -4 -5 -10 -2 -5 3 -10 14 -10 23 0 15 2 15 10 2 5 -8 10
-19 10 -23z"/>
<path d="M13500 2325 c-10 -12 -9 -29 5 -85 36 -148 3 -241 -134 -379 -48 -47
-120 -115 -161 -151 -103 -88 -342 -265 -398 -295 -102 -54 -167 -94 -176
-108 -13 -20 9 -47 36 -47 35 0 325 163 475 267 176 122 363 301 428 410 l42
73 48 -60 c49 -61 99 -100 129 -100 20 0 56 35 56 55 0 9 -26 44 -58 78 -76
83 -195 243 -212 287 -25 65 -55 85 -80 55z"/>
<path d="M27990 2306 c0 -2 7 -6 15 -10 8 -3 15 -1 15 4 0 6 -7 10 -15 10 -8
0 -15 -2 -15 -4z"/>
<path d="M13714 1405 c-16 -6 -86 -57 -154 -112 -346 -276 -707 -496 -975
-596 -196 -73 -350 -101 -545 -100 -126 0 -170 4 -235 22 -292 79 -444 257
-445 522 0 82 -55 93 -74 15 -18 -71 21 -261 74 -366 28 -55 118 -150 179
-190 136 -86 293 -124 516 -124 178 1 267 15 467 74 53 15 268 104 341 141
251 127 802 513 902 631 48 57 15 111 -51 83z"/>
</g>
</svg>
